<svg width="18" height="18" viewBox="0 0 18 18" fill="none" xmlns="http://www.w3.org/2000/svg">
<path d="M16.3887 0.291902L9.00094 7.6797L1.61314 0.291902C1.43545 0.129302 1.20188 0.0415266 0.961087 0.046862C0.72029 0.0521973 0.490836 0.150232 0.320525 0.320543C0.150215 0.490854 0.0521799 0.720307 0.0468446 0.961104C0.0415092 1.2019 0.129284 1.43547 0.291884 1.61316L7.67593 9.00095L0.29001 16.3869C0.199776 16.4729 0.127643 16.576 0.0778516 16.6903C0.0280603 16.8046 0.00161536 16.9277 7.17197e-05 17.0523C-0.00147192 17.1769 0.0219169 17.3006 0.0688628 17.4161C0.115809 17.5316 0.185364 17.6365 0.273442 17.7247C0.361519 17.8129 0.46634 17.8826 0.581743 17.9297C0.697146 17.9768 0.820803 18.0004 0.945444 17.999C1.07008 17.9976 1.19319 17.9714 1.30754 17.9217C1.42188 17.8721 1.52515 17.8001 1.61127 17.71L9.00094 10.3241L16.3887 17.7119C16.5664 17.8745 16.8 17.9623 17.0408 17.9569C17.2816 17.9516 17.511 17.8536 17.6813 17.6832C17.8517 17.5129 17.9497 17.2835 17.955 17.0427C17.9604 16.8019 17.8726 16.5683 17.71 16.3906L10.3222 9.00283L17.71 1.61316C17.8002 1.52717 17.8724 1.424 17.9221 1.30973C17.9719 1.19546 17.9984 1.07238 17.9999 0.947746C18.0015 0.823107 17.9781 0.699417 17.9311 0.583947C17.8842 0.468477 17.8146 0.363557 17.7266 0.275355C17.6385 0.187153 17.5337 0.117449 17.4183 0.0703391C17.3029 0.0232295 17.1792 -0.000334169 17.0546 0.00103281C16.9299 0.00239978 16.8068 0.02867 16.6925 0.0782993C16.5781 0.127929 16.4749 0.199915 16.3887 0.290028V0.291902Z" fill="black"/>
</svg>
