<svg width="24" height="24" viewBox="0 0 24 24" fill="none" xmlns="http://www.w3.org/2000/svg">
<path d="M6.5436 5.00065C6.46349 4.91891 6.36805 4.85376 6.26275 4.80891C6.15745 4.76407 6.04434 4.74041 5.92989 4.7393C5.81544 4.73818 5.70189 4.75963 5.59573 4.80242C5.48958 4.8452 5.39289 4.90849 5.3112 4.98865C4.38714 5.90735 3.65414 6.99992 3.15448 8.20335C2.65482 9.40677 2.3984 10.6972 2.4 12.0003C2.3985 13.3533 2.67511 14.6922 3.21264 15.9338C3.75018 17.1755 4.53718 18.2934 5.5248 19.2183C5.69103 19.3719 5.91059 19.4547 6.13689 19.4491C6.36318 19.4435 6.57838 19.3499 6.7368 19.1883C7.116 18.8091 7.0692 18.2055 6.7044 17.8563C5.9118 17.1009 5.28107 16.1923 4.85054 15.1856C4.42002 14.1789 4.19869 13.0951 4.2 12.0003C4.2 9.78505 5.0892 7.77625 6.5316 6.31465C6.8796 5.96065 6.9156 5.37265 6.5436 5.00065ZM8.6568 7.11625C8.49876 6.95364 8.2827 6.8603 8.05597 6.85671C7.82924 6.85311 7.61032 6.93954 7.4472 7.09705C6.79794 7.7378 6.28259 8.50127 5.93113 9.34304C5.57967 10.1848 5.39913 11.0881 5.4 12.0003C5.4 14.0307 6.276 15.8559 7.6716 17.1183C7.83645 17.2636 8.05091 17.34 8.27053 17.3315C8.49014 17.323 8.69807 17.2303 8.8512 17.0727C9.2448 16.6791 9.1716 16.0599 8.802 15.7119C8.29537 15.2356 7.89181 14.6605 7.61626 14.0221C7.34072 13.3837 7.19904 12.6956 7.2 12.0003C7.2 10.6203 7.7484 9.36745 8.64 8.44825C8.9832 8.09545 9.0396 7.49785 8.6568 7.11625ZM15.3432 7.11505C15.5012 6.95244 15.7173 6.8591 15.944 6.85551C16.1708 6.85191 16.3897 6.93834 16.5528 7.09585C17.2022 7.73674 17.7176 8.5004 18.0691 9.34239C18.4206 10.1844 18.601 11.0879 18.6 12.0003C18.6 14.0307 17.724 15.8559 16.3284 17.1183C16.1636 17.2636 15.9491 17.34 15.7295 17.3315C15.5099 17.323 15.3019 17.2303 15.1488 17.0727C14.7552 16.6791 14.8284 16.0599 15.198 15.7119C15.7046 15.2356 16.1082 14.6605 16.3837 14.0221C16.6593 13.3837 16.801 12.6956 16.8 12.0003C16.8 10.6203 16.2516 9.36745 15.36 8.44825C15.0168 8.09545 14.9604 7.49665 15.3432 7.11505ZM17.4564 5.00065C17.5365 4.91891 17.632 4.85376 17.7373 4.80891C17.8426 4.76407 17.9557 4.74041 18.0701 4.7393C18.1846 4.73818 18.2981 4.75963 18.4043 4.80242C18.5104 4.8452 18.6071 4.90849 18.6888 4.98865C19.6129 5.90735 20.3459 6.99992 20.8455 8.20335C21.3452 9.40677 21.6016 10.6972 21.6 12.0003C21.6015 13.3533 21.3249 14.6922 20.7874 15.9338C20.2498 17.1755 19.4628 18.2934 18.4752 19.2183C18.309 19.3719 18.0894 19.4547 17.8631 19.4491C17.6368 19.4435 17.4216 19.3499 17.2632 19.1883C16.884 18.8091 16.9308 18.2055 17.2968 17.8563C18.0892 17.1008 18.7197 16.1921 19.15 15.1854C19.5803 14.1787 19.8015 13.0951 19.8 12.0003C19.8 9.78505 18.9108 7.77625 17.4684 6.31465C17.1204 5.96065 17.0844 5.37265 17.4564 5.00065ZM12 10.2003C11.5226 10.2003 11.0648 10.3899 10.7272 10.7275C10.3896 11.065 10.2 11.5229 10.2 12.0003C10.2 12.4776 10.3896 12.9355 10.7272 13.273C11.0648 13.6106 11.5226 13.8003 12 13.8003C12.4774 13.8003 12.9352 13.6106 13.2728 13.273C13.6104 12.9355 13.8 12.4776 13.8 12.0003C13.8 11.5229 13.6104 11.065 13.2728 10.7275C12.9352 10.3899 12.4774 10.2003 12 10.2003Z" fill="#EC222C"/>
</svg>
