<svg width="10" height="12" viewBox="0 0 10 12" fill="none" xmlns="http://www.w3.org/2000/svg">
<path d="M0.666673 1.68295V10.3163C0.666673 10.9746 1.39167 11.3746 1.95001 11.0163L8.73334 6.69961C8.8521 6.62445 8.94992 6.52048 9.01771 6.39737C9.08549 6.27425 9.12103 6.13599 9.12103 5.99545C9.12103 5.8549 9.08549 5.71664 9.01771 5.59353C8.94992 5.47041 8.8521 5.36644 8.73334 5.29128L1.95001 0.982946C1.82431 0.90165 1.67901 0.855785 1.52942 0.850191C1.37983 0.844596 1.23151 0.879479 1.10009 0.95116C0.968679 1.02284 0.859047 1.12866 0.782763 1.25746C0.70648 1.38626 0.666373 1.53325 0.666673 1.68295Z" fill="white"/>
</svg>
